<svg id="svg" xmlns="http://www.w3.org/2000/svg" xmlns:xlink="http://www.w3.org/1999/xlink" version="1.1" width="300" height="300" preserveAspectRatio="xMidYMid meet" buffered-rendering="static" style="background: rgb(255, 255, 255);" viewBox="0.5 0.52 298.62 298.81"><g><path d="M 156 0.6567396724696233 C 149.125 0.3871611226966649 139.9 0.516686308726434 135.5 0.9445734192024434 C 131.1 1.372460529678453 124.8 2.2632991532610554 121.5 2.9242148049415606 C 118.2 3.585130456622066 111 5.496121194881832 105.5 7.170860889963265 C 100 8.845600585044696 91.225 12.217167486294679 86 14.663231781629893 C 80.775 17.10929607696511 72.225 21.95994540089902 67 25.442452501483032 C 61.775 28.924959602067048 53.26926952028022 35.762569784926825 48.09837671173382 40.637141796726986 C 42.92748390318742 45.51171380852715 35.883419383886654 53.1 32.44490000217656 57.5 C 29.006380620466466 61.9 23.66300184778344 69.775 20.57072495176984 75 C 17.47844805575624 80.225 13.196318967977021 89 11.054882534482687 94.5 C 8.913446100988352 100 6.463261687580731 107.2 5.610028282465748 110.5 C 4.756794877350766 113.8 3.5741645925338004 118.975 2.9819609828724936 122 C 2.3897573732111868 125.025 1.4765510390216137 132.5625 0.9526135735623313 138.75 C 0.33025593559236666 146.09980439233053 0.35227327381389095 154.24687966168455 1.016121940810649 162.25 C 1.5749890082565061 168.9875 2.934723329551622 178.325 4.037753765910907 183 C 5.140784202270192 187.675 6.995737880436646 194.425 8.159873050725253 198 C 9.324008221013859 201.575 12.264163716858842 208.775 14.693551930380771 214 C 17.1229401439027 219.225 22.09602230331616 228 25.74484561796624 233.5 C 30.147845666860896 240.13679717559657 36.43524885077187 247.5570365099097 44.439534913210466 255.56301469679974 C 51.95290753844355 263.0779756662565 60.081734043747836 270.0346326291997 66 274.0144799202776 C 71.225 277.5281277099506 80 282.53508080701175 85.5 285.1410423581914 C 91 287.747003909371 98.875 291.0022244320519 103 292.3748657419267 C 107.125 293.74750705180156 115.225 295.87389502431233 121 297.10017234750626 C 129.70011241568085 298.94757504267284 134.67123050570518 299.32976748058604 150 299.32976748058604 C 165.32876949429516 299.3297674805861 170.29988758431895 298.9475750426729 179 297.10017234750626 C 184.775 295.8738950243123 192.875 293.7448361189753 197 292.36893033564616 C 201.125 290.9930245523171 208.775 287.8456800041608 214 285.3748313397433 C 219.225 282.90398267532584 228 277.87614046295954 233.5 274.201848645596 C 239 270.5275568282324 247.9423695881691 263.24152150314274 253.37193241815353 258.01065903428565 C 258.801495248138 252.77979656542854 265.94317005475244 244.9 269.24232087729683 240.5 C 272.5414716998412 236.1 277.07946587386795 229.35 279.326752375134 225.5 C 281.57403887640004 221.65 285.1198640697856 214.5625 287.20636391599066 209.75 C 289.2928637621958 204.9375 292.142658889151 197.0625 293.5392419758911 192.25 C 294.93582506263124 187.4375 296.7689760112915 179.225 297.6129107506917 174 C 298.5168995213533 168.4031912585279 299.1352514928798 158.33706643390332 299.1179212255606 149.5 C 299.10026653197775 140.49750181639217 298.46098685528017 130.9014989101647 297.5190563241353 125.5 C 296.65585960657364 120.55 294.86730236107354 112.675 293.5444846674684 108 C 292.2216669738633 103.325 289.37940630771936 95.45 287.22834985381525 90.5 C 285.0772933999111 85.55 281.17368739034686 77.9 278.55366983256135 73.5 C 275.93365227477585 69.1 270.9772606924518 61.9 267.5394663162858 57.5 C 264.1016719401198 53.1 257.4739608191063 45.9 252.81121938070035 41.5 C 248.1484779422944 37.1 240.77096844774346 30.93711312599519 236.41675383725385 27.80469583554487 C 232.06253922676424 24.672278545094542 223.55 19.590062384108684 217.5 16.51088214446517 C 211.45 13.431701904821663 202.225 9.541553390496999 197 7.866107668188141 C 191.775 6.190661945879282 183.225 3.993426667168838 178 2.983362604387154 C 172.775 1.973298541605471 162.875 0.9263182222425816 156 0.6567396724696233 Z " class="odd" fill="#000000"></path><path d="M 154 34.69469409625721 C 155.375 35.00704213516179 157.85 36.26927530690307 159.5 37.49965670012672 C 161.15 38.73003809335038 164.18173144827918 42.60845317850427 166.23718099617597 46.11835688935759 C 168.29263054407275 49.628260600210915 171.7497223267606 57.9 173.91960717992674 64.5 C 176.08949203309288 71.1 179.3348640544883 83.25 181.13154500524985 91.5 L 184.39823764299814 106.5 L 184.69911882149907 170.75 L 185 235 L 152 235 L 119 235 L 118.99334566564877 173.25 L 118.98669133129755 111.5 L 120.95871991952748 100.5 C 122.04333564305395 94.45 124.07133009351199 85.1125 125.46537425387871 79.75 C 126.85941841424543 74.3875 128.96311751731338 67.1875 130.14026114958529 63.75 C 131.31740478185722 60.3125 133.79240478185721 54.4625 135.64026114958529 50.75 C 137.48811751731338 47.0375 140.4625 42.353937764618976 142.25 40.342083921375504 C 144.0375 38.33023007813204 146.85 36.10875750660167 148.5 35.40547820686358 C 150.15 34.70219890712549 152.625 34.38234605735262 154 34.69469409625721 Z " class="even" fill="#ffffff"></path><path d="M 202 55.938807982263455 C 202.825 55.923485705841685 204.0625 56.60598570584168 204.75 57.45547464893012 C 205.4375 58.30496359201855 205.775 60.125 205.5 61.5 C 205.225 62.875 204.325 64.225 203.5 64.5 C 202.675 64.775 201.1 64.55 200 64 C 198.8996282527881 63.44981412639405 197.99250309789343 61.987918215613384 197.98333333333335 60.75 C 197.97416666666666 59.5125 198.53666666666666 57.93 199.23333333333335 57.233333333333334 C 199.93 56.53666666666667 201.175 55.95413025868522 202 55.938807982263455 Z " class="even" fill="#ffffff"></path><path d="M 97 84 C 98.2 84.6 99 86 99 87.5 C 99 89.16666666666667 98.33333333333333 90.16666666666667 97 90.5 C 95.9 90.775 94.30496359201855 90.4375 93.45547464893012 89.75 C 92.60598570584169 89.0625 91.93098570584169 87.9375 91.95547464893012 87.25 C 91.97996359201855 86.5625 92.675 85.325 93.5 84.5 C 94.61111111111111 83.38888888888889 95.51851851851852 83.25925925925925 97 84 Z " class="even" fill="#ffffff"></path><path d="M 208 84.96666666666667 C 208.825 84.96666666666667 210.07 85.53666666666666 210.76666666666665 86.23333333333333 C 211.46333333333334 86.93 212.02583333333334 88.5125 212.01666666666665 89.75 C 212.00749690210657 90.98791821561338 211.1003717472119 92.44981412639405 210 93 L 208 94 L 206 93 C 204.8996282527881 92.44981412639405 203.99250309789343 90.98791821561338 203.98333333333335 89.75 C 203.97416666666666 88.5125 204.53666666666666 86.93 205.23333333333335 86.23333333333333 C 205.93 85.53666666666666 207.175 84.96666666666667 208 84.96666666666667 Z " class="even" fill="#ffffff"></path><path d="M 148 87 C 146.31234804333528 87 143.79701429360932 88.01896344593662 142.25 89.32932898657042 C 140.7375 90.61045992918415 138.9375 93.08545992918414 138.25 94.82932898657042 L 137 98 L 139.75 97.99367737093546 C 141.7442322641663 97.98909235607186 142.98094310462145 97.1646184624351 144.25 94.99367737093546 C 145.21640552808535 93.34047373632056 147.11942067416376 91.77611586516724 148.5 91.5 C 150.16666666666666 91.16666666666667 151 90.33333333333333 151 89 C 151 87.44444444444444 150.33333333333334 87 148 87 Z " class="odd" fill="#000000"></path><path d="M 156.25 86.9654145981621 C 154.67819513394596 86.9895752661191 154 87.60284011906307 154 89 C 154 90.33333333333333 155 91.33333333333333 157 92 C 159 92.66666666666667 160.16666666666666 93.83333333333333 160.5 95.5 C 160.9 97.5 161.6 98 164 98 C 165.65 98 167 97.775 167 97.5 C 167 97.225 166.325 95.65 165.5 94 C 164.675 92.35 162.7625 90.08443656917295 161.25 88.9654145981621 C 159.7375 87.84639262715125 157.4875 86.94639262715125 156.25 86.9654145981621 Z " class="odd" fill="#000000"></path><path d="M 67.5 98.91094929786024 C 68.05 98.91094929786024 69.06431686916416 99.49348570584169 69.75403748703145 100.20547464893012 C 70.44375810489875 100.91746359201855 70.78125810489875 102.2875 70.50403748703145 103.25 C 70.19712473986063 104.31559000345828 69.02227143351183 105 67.5 105 C 65.97772856648817 105 64.80287526013937 104.31559000345828 64.49596251296855 103.25 C 64.21874189510125 102.2875 64.55624189510125 100.91746359201855 65.24596251296855 100.20547464893012 C 65.93568313083584 99.49348570584169 66.95 98.91094929786024 67.5 98.91094929786024 Z " class="even" fill="#ffffff"></path><path d="M 223.25 102.95547464893012 C 224.4875 102.93098570584169 226.0625 103.60598570584169 226.75 104.45547464893012 C 227.4375 105.30496359201855 227.775 106.9 227.5 108 C 227.225 109.1 225.9875 110.27786666198462 224.75 110.61748147107691 C 223.16148068654718 111.053428689968 221.9855150215744 110.6124415656032 220.75 109.11748147107691 C 219.4275695796823 107.51735466432768 219.2443254741042 106.51134905179164 220 105 C 220.55 103.9 222.0125 102.97996359201855 223.25 102.95547464893012 Z " class="even" fill="#ffffff"></path><path d="M 84.75 120.01531277451707 C 85.1625 120.02373480050144 86.09541039231199 120.36123480050145 86.82313420513776 120.76531277451707 C 87.55085801796352 121.16939074853268 87.99377124188693 122.4 87.80738581385646 123.5 C 87.62100038582597 124.6 86.68808999351397 125.6125 85.7342516087187 125.75 C 84.78041322392342 125.8875 83.72685503811705 125.2125 83.39301119581566 124.25 L 82.78602239163133 122.5 L 83.39301119581566 121.25 C 83.72685503811705 120.5625 84.3375 120.00689074853268 84.75 120.01531277451707 Z " class="even" fill="#ffffff"></path><path d="M 206 120.92769687115234 C 206.275 120.91848570584169 207.0625 121.60598570584169 207.75 122.45547464893012 C 208.4375 123.30496359201855 208.775 124.45 208.5 125 C 208.225 125.55 207.1 126 206 126 C 204.77248677248676 126 203.9892710170488 125.32407407407408 203.97222222222223 124.25 C 203.95694444444445 123.2875 204.29444444444445 122.15 204.72222222222223 121.72222222222223 C 205.15 121.29444444444444 205.725 120.936908036463 206 120.92769687115234 Z " class="even" fill="#ffffff"></path><path d="M 238 122.04328483682684 C 238.275 122.04328483682684 239.175 123.48664740290745 240 125.25075720589486 C 240.86224536787705 127.0945093344432 242.48172418920882 128.67969421302158 243.80901699437493 128.97911478748142 C 245.07897634128116 129.26560165436663 246.20397634128116 129.94383723063552 246.30901699437493 130.48630495696784 C 246.41405764746872 131.02877268330016 245.6 131.63772961444045 244.5 131.839542581724 C 243.4 132.0413555490076 241.69783236900426 132.94751831837206 240.71740526445387 133.85323762475616 C 239.73697815990352 134.7589569311403 238.94947815990352 136.2875 238.96740526445387 137.25 C 238.98533236900425 138.2125 238.4375 138.85021016516728 237.75 138.66713370037172 C 237.0625 138.48405723557616 236.3390762059427 137.47155723557617 236.14239156876152 136.41713370037172 C 235.94570693158033 135.36271016516727 235.27070693158035 133.91746359201855 234.64239156876152 133.20547464893014 C 234.01407620594267 132.4934857058417 232.7125 131.9309857058417 231.75 131.95547464893014 C 230.7875 131.97996359201855 230 131.325 230 130.5 C 230 129.675 231.0125 128.8875 232.25 128.75 C 233.67606416248353 128.59154842639072 235.04929055834432 127.3177957743168 236 125.27164241841342 C 236.825 123.49604574854081 237.725 122.04328483682684 238 122.04328483682684 Z " class="even" fill="#ffffff"></path><path d="M 151.5 124.97436268931966 C 149.01578635908163 124.9515134018337 145.41579375626276 126.00796456417709 142 127.76222565170568 C 137.70378974267712 129.96864530583272 135.77404217636544 131.78116180858595 133.18316825734826 136.0434398967887 L 129.86633651469648 141.5 L 130.18316825734826 148.66611863930052 C 130.45746041948695 154.87007459164585 130.93636295880663 156.447694519639 133.75 160.41611863930052 C 135.5375 162.93725338768525 136.55 165.225 136 165.5 C 135.45 165.775 135.01368390865534 166.5625 135.03040868590077 167.25 C 135.0507093312433 168.08449205141548 135.37527820734982 168.00139046169858 136.00683066895851 167 C 136.82727252077623 165.69910625841612 137.5864768049227 165.80819801339618 141.72642198305772 167.8218608182977 C 145.64813844994063 169.7293775222482 147.77585102359333 170.08628445748042 153.64948855091995 169.8218608182977 C 159.79206133010382 169.54533005849854 161.4116920620777 169.05809675588807 165.14948855091995 166.36231731285207 C 167.845353168067 164.41800160764788 170.55778996180476 161.1851637594899 172.28121424508305 157.86231731285207 C 174.07738952561456 154.3992033795263 175.05137315787363 150.9947525683269 175.03121424508305 148.25 C 175.01404641028736 145.9125 174.54062849946078 142.7625 173.97917444324617 141.25 C 173.14649295478557 139.0068409429831 173.30640640754393 138.1313884051032 174.84682730589213 136.5 C 175.885490436562 135.4 177.58236193710124 133.15 178.61765286264597 131.5 L 180.5 128.5 L 176.25 131.75 L 172 135 L 167.25 130.95000144495694 C 164.6375 128.72250223968328 160.925 126.47501186016449 159 125.95557837935965 C 157.075 125.4361448985548 153.7 124.99459783803682 151.5 124.97436268931966 Z " class="odd" fill="#000000"></path><path d="M 152 135.9485716078135 C 152.275 135.9485716078135 153.625 137.09671438429743 155 138.5 C 156.375 139.90328561570257 157.275 141.0514283921865 157 141.0514283921865 C 156.725 141.0514283921865 155.375 139.90328561570257 154 138.5 C 152.625 137.09671438429743 151.725 135.9485716078135 152 135.9485716078135 Z " class="even" fill="#ffffff"></path><path d="M 115.264380007122 139 C 115.3939710032049 139.275 115.3875 160.7625 115.25 186.75 L 115 234 L 107.25 233.44421427566468 C 102.9875 233.13853212728026 96.125 232.41005932513738 92 231.82538582645833 C 87.875 231.24071232777928 82.7 230.1182744462033 80.5 229.33107942295618 C 78.3 228.54388439970907 75.47592861175804 226.9098572018519 74.22428580390675 225.69990787216253 C 72.60243740547453 224.1320848716775 71.94866576686478 222.35070665062682 71.94889931892857 219.5 C 71.94914076954755 216.55288459407893 72.96994328222904 213.9206731088816 75.82701670585637 209.5 C 77.95980102755337 206.2 83.66221829078606 199.225 88.49905506859571 194 C 93.33589184640535 188.775 97.87227683910825 183.6 98.57991060793552 182.5 C 99.28754437676278 181.4 102.87900733695415 172.175 106.56093940836077 162 C 110.24287147976739 151.825 113.65437605439384 142.375 114.14206068530841 141 C 114.62974531622298 139.625 115.1347890110391 138.725 115.264380007122 139 Z " class="even" fill="#ffffff"></path><path d="M 188.40612803391193 139 C 188.66005400811903 139.275 192.38505400811903 149.19374409631087 196.6839058116897 161.04165354735747 L 204.5 182.58330709471494 L 213.82591313312224 192.54165354735747 C 218.95516535633945 198.01874409631085 224.93513875464635 205.2 227.11474290713753 208.5 C 229.2943470596287 211.8 231.33319577141228 216.075 231.64551782221207 218 C 231.9578398730119 219.925 231.715366474705 222.5125 231.1066880481968 223.75 C 230.49800962168857 224.9875 228.3125 226.8389073430756 226.25 227.864238540168 C 224.1875 228.88956973726042 220.25 230.24878477463542 217.5 230.88471640100136 C 214.75 231.52064802736732 208 232.4701307989856 202.5 232.99467811570867 C 197 233.5192254324317 191.4875 233.96001039505668 190.25 233.97420025487529 L 188 234 L 187.97222222222223 186.25 C 187.95694444444445 159.9875 188.15220205970482 138.725 188.40612803391193 139 Z " class="even" fill="#ffffff"></path><path d="M 158.66713370037172 143.25 C 159.58405723557615 143.3875 160.48405723557616 144.0625 160.66713370037172 144.75 C 160.86195563525362 145.4816073116273 160.37792877395276 145.79264292465092 159.5 145.5 C 158.675 145.225 158 145.45 158 146 C 158 146.55 158.9 147.225 160 147.5 C 161.1 147.775 162.02003640798145 148.5625 162.04452535106986 149.25 C 162.0690142941583 149.9375 161.5065142941583 151.07684918721756 160.79452535106986 151.78188708270568 C 160.08253640798145 152.48692497819383 158.375 152.88155217812732 157 152.65883641589122 L 154.5 152.25389866637104 L 156.75 151.6269493331855 C 157.9875 151.28212719993348 159 150.55 159 150 C 159 149.45 158.4375 149.02003640798145 157.75 149.04452535106986 C 157.0625 149.0690142941583 155.9375 148.39401429415832 155.25 147.54452535106986 C 154.23828958950213 146.29443544950564 154.28594750740254 145.71405249259746 155.5 144.5 C 156.325 143.675 157.7502101651673 143.1125 158.66713370037172 143.25 Z " class="even" fill="#ffffff"></path><path d="M 70.25 144.52241866745615 C 70.6625 144.78508840035528 70.97996359201855 145.7875 70.95547464893012 146.75 C 70.93098570584169 147.7125 71.49348570584169 149.01407620594267 72.20547464893012 149.64239156876152 C 72.91746359201855 150.27070693158035 74.4 150.95186970094483 75.5 151.15608661179368 C 76.6 151.3603035226425 77.41405764746872 151.97122731669984 77.30901699437496 152.51369504303216 C 77.20397634128118 153.05616276936448 76.07897634128118 153.73739275455955 74.80901699437496 154.02753945457675 C 73.47210189049433 154.33298348830832 71.86849627382833 155.92092906436784 71 157.799359422337 C 70.175 159.58371370458792 69.1625 161.0338209500284 68.75 161.02181996776025 C 68.3375 161.0098189854921 68.0075 159.9875 68.01666666666667 158.75 C 68.02583333333334 157.5125 67.46333333333334 155.93 66.76666666666667 155.23333333333335 C 66.07 154.53666666666666 64.7125 153.97416666666666 63.75 153.98333333333335 C 62.7875 153.9925 61.775 153.55 61.5 153 C 61.225 152.45 62.575 151.325 64.5 150.5 C 66.62312312312312 149.5900900900901 67.98907240573907 148.31156156156158 67.97222222222223 147.25 C 67.95694444444445 146.2875 68.29444444444444 145.17258840035527 68.72222222222223 144.77241866745615 C 69.15 144.37224893455704 69.8375 144.25974893455702 70.25 144.52241866745615 Z " class="even" fill="#ffffff"></path><path d="M 136 144 C 137.1 144 138.43631609134465 144.7875 138.96959131409926 145.75 L 139.9391826281985 147.5 L 139.96959131409926 145.75 C 139.98631609134466 144.7875 140.45 144 141 144 C 141.55 144 142 145.8 142 148 C 142 151.13104192379458 141.61983084166013 152.00673767282993 140.25 152.03101495003924 C 139.2875 152.0480731725608 137.96795612654327 151.03557317256082 137.31768028120723 149.78101495003924 L 136.1353605624145 147.5 L 136.06768028120723 149.75 C 136.03045612654327 150.9875 135.55 152 135 152 C 134.45 152 134 150.2 134 148 C 134 144.66666666666666 134.33333333333334 144 136 144 Z " class="even" fill="#ffffff"></path><path d="M 147.90473453556652 144.15408631959815 C 149.6403240047253 144.40374553647382 150.68380467251464 145.5434806677893 151.65473453556652 148.25 L 153 152 L 150.64500854450114 152.25 C 148.92537177499656 152.43255233638845 148.45323812971566 152.109384266863 148.89500854450114 151.0521524682211 C 149.39991942677187 149.8438147834166 149.1277942643378 149.80245859056527 147.25 150.8021524682211 C 146.0125 151.4609686106995 144.775 152 144.5 152 C 144.225 152 144.289994453249 150.9875 144.6444321183311 149.75 C 144.9988697834132 148.5125 145.67029027539465 147.05 146.13647765606763 146.5 C 146.6026650367406 145.95 146.65017058349162 145.11933884381918 146.24204553773654 144.65408631959815 C 145.83392049198144 144.18883379537712 146.58213054100494 143.96383379537713 147.90473453556652 144.15408631959815 Z " class="even" fill="#ffffff"></path><path d="M 167.5 144 C 168.325 144 169.63013235371048 145.6875 170.40029411935666 147.75 C 171.65919966509927 151.12136015303975 171.63395700863526 151.53635507862086 170.15029411935666 151.86005598967648 C 169.2426323537105 152.05808678399853 168.3875 151.72058678399856 168.25 151.11005598967648 C 168.1125 150.4995251953544 167.325 150 166.5 150 C 165.675 150 165 150.675 165 151.5 C 165 152.325 164.55 153 164 153 C 163.45 153 162.98894337294763 152.6625 162.9754297176614 152.25 C 162.96191606237517 151.8375 163.63691606237518 149.8125 164.4754297176614 147.75 C 165.31394337294762 145.6875 166.675 144 167.5 144 Z " class="even" fill="#ffffff"></path><path d="M 166.5 147 C 166.225 147 165.775 147.45 165.5 148 C 165.225 148.55 165.45 149 166 149 C 166.55 149 167 148.55 167 148 C 167 147.45 166.775 147 166.5 147 Z " class="odd" fill="#000000"></path><path d="M 223.5 148 C 225.0042454513273 148 226.2196059746075 148.6970281840709 226.5513556902658 149.75 C 226.8818939601372 150.79912669350716 226.38127016978518 151.97882013848724 225.3013556902658 152.69555879014098 C 224.3106100606196 153.35311612471853 222.9375 153.69061612471853 222.25 153.44555879014098 C 221.5625 153.20050145556343 221 151.875 221 150.5 C 221 148.5 221.5 148 223.5 148 Z " class="even" fill="#ffffff"></path><path d="M 48 149.91094929786024 C 48.825 149.91094929786024 50.0625 150.60598570584168 50.75 151.45547464893014 C 51.4375 152.30496359201857 51.775 154.125 51.5 155.5 C 51.07575757575758 157.62121212121212 50.50757575757576 157.96212121212122 47.75 157.75 C 45.106493178952086 157.54665332145785 44.44739612526286 157.03346678542147 44.218112917294306 155 C 44.06307502180618 153.625 44.51307502180618 151.91746359201855 45.218112917294306 151.20547464893014 C 45.92315081278244 150.4934857058417 47.175 149.91094929786024 48 149.91094929786024 Z " class="even" fill="#ffffff"></path><path d="M 151.5 155.5 C 152.325 155.775 153.02003640798145 156.5625 153.04452535106986 157.25 C 153.0761419202309 158.13760022103483 152.62835340356384 158.06512026524177 151.5 157 C 150.62602211382313 156.175 149.9309857058417 155.3875 149.95547464893014 155.25 C 149.97996359201855 155.1125 150.675 155.225 151.5 155.5 Z " class="even" fill="#ffffff"></path><path d="M 82.75 169.98333333333335 C 83.98791821561338 169.99250309789343 85.44981412639405 170.8996282527881 86 172 L 87 174 L 86 176 C 85.44981412639405 177.1003717472119 83.98791821561338 178.00749690210657 82.75 178.01666666666665 C 81.5125 178.02583333333334 79.93 177.46333333333334 79.23333333333333 176.76666666666665 C 78.53666666666666 176.07 77.96666666666667 174.825 77.96666666666667 174 C 77.96666666666667 173.175 78.53666666666666 171.93 79.23333333333333 171.23333333333335 C 79.93 170.53666666666666 81.5125 169.97416666666666 82.75 169.98333333333335 Z " class="even" fill="#ffffff"></path><path d="M 53.75 175.98333333333335 C 54.4375 175.9925 55.675 176.675 56.5 177.5 C 57.325 178.325 58 179.225 58 179.5 C 58 179.775 57.55 180.9 57 182 C 56.45 183.1 55.2125 184.0075 54.25 184.01666666666665 C 53.2875 184.02583333333334 51.93 183.46333333333334 51.233333333333334 182.76666666666665 C 50.53666666666667 182.07 49.96666666666667 180.825 49.96666666666667 180 C 49.96666666666667 179.175 50.53666666666667 177.93 51.233333333333334 177.23333333333335 C 51.93 176.53666666666666 53.0625 175.97416666666666 53.75 175.98333333333335 Z " class="even" fill="#ffffff"></path><path d="M 235 176.96603352732203 C 235.275 176.96603352732203 236.31979335446042 177.53617598367458 237.32176300991205 178.233016763661 C 238.55818679266437 179.09291357638293 239.04014236864344 180.46391115195817 238.82176300991205 182.5 L 238.5 185.5 L 235 185.5 L 231.5 185.5 L 231.17823699008795 182.5 C 230.95985763135656 180.46391115195817 231.44181320733563 179.09291357638293 232.67823699008795 178.233016763661 C 233.68020664553958 177.53617598367458 234.725 176.96603352732203 235 176.96603352732203 Z " class="even" fill="#ffffff"></path><path d="M 67 184 C 68.1 184 69.3375 184.69646868509486 69.75 185.5477081890997 C 70.21677817088396 186.51095671919313 69.83914906539589 187.73825131202935 68.75 188.7977081890997 L 67 190.5 L 65.25 188.7977081890997 C 64.16085093460411 187.73825131202935 63.783221829116044 186.51095671919313 64.25 185.5477081890997 C 64.6625 184.69646868509486 65.9 184 67 184 Z " class="even" fill="#ffffff"></path><path d="M 128 237 L 136 237 L 135.44707862176625 242.25 C 135.1429718637377 245.1375 134.6929718637377 248.7375 134.44707862176625 250.25 L 134 253 L 126 253 L 118 253 L 118.61618379499424 246.25 C 118.95508488224107 242.5375 119.40508488224107 238.9375 119.61618379499424 238.25 C 119.88143108330003 237.38615135041715 122.47136864266974 237 128 237 Z " class="even" fill="#ffffff"></path><path d="M 152.5 237 C 158.825 237 164.01425788132386 237.3375 164.0316841807197 237.75 C 164.04911048011556 238.1625 164.70985259879168 243.225 165.5 249 C 166.29014740120832 254.775 166.95088951988444 259.8375 166.9683158192803 260.25 C 166.98574211867614 260.6625 160.3625 260.99693300912986 152.25 260.99318446473296 L 137.5 260.9863689294659 L 138.81418844942104 250.24318446473296 C 139.5369920966026 244.33443300912984 140.3244920966026 238.9375 140.56418844942104 238.25 C 140.87876482514952 237.34772820583066 144.1990994936421 237 152.5 237 Z " class="even" fill="#ffffff"></path><path d="M 176 237 L 184 237 L 184.61618379499424 243.75 C 184.95508488224107 247.4625 185.40508488224108 251.0625 185.61618379499424 251.75 C 185.9010730671967 252.6778180170838 183.9380353093364 253 178 253 L 170 253 L 169.45601337945473 248.25 C 169.15682073815483 245.6375 168.70682073815485 242.0375 168.45601337945473 240.25 L 168 237 L 176 237 Z " class="even" fill="#ffffff"></path></g></svg>